<svg width="107" height="34" viewBox="0 0 107 34" fill="none" xmlns="http://www.w3.org/2000/svg">
<path fill-rule="evenodd" clip-rule="evenodd" d="M48.8163 23.547C48.8957 23.4536 48.9081 23.142 48.7781 23.1373C46.6952 23.0624 44.6715 22.0669 44.6041 19.4659L44.6084 19.0232L45.2303 9.65335C48.3153 11.5783 52.5695 13.5579 56.1752 15.721C56.2343 15.7564 60.2534 12.2935 62.8525 11.5367L63.3748 17.2903C63.2275 18.9108 60.7336 19.724 59.5405 20.1688C59.4116 20.2169 59.4191 20.624 59.5521 20.6126C60.8896 20.4976 65.4069 19.0719 65.4069 19.0719L64.412 8.63255C64.412 8.63255 64.1752 8.44334 63.9853 8.38321C63.7953 8.32309 63.652 8.39187 63.652 8.39187C62.6375 8.86533 59.3925 10.1746 55.575 14.0632C52.5135 12.615 48.1265 9.93592 45.1363 7.33459C44.6531 6.9143 44.5597 7.0545 44.2104 6.96654C43.996 6.9126 43.7087 7.00225 43.7087 7.00225L42.335 25.4407C44.051 24.7993 45.8101 24.5712 47.5466 23.9781C47.5466 23.9781 48.6005 23.8004 48.8163 23.547" fill="white"/>
<path d="M48.8163 23.547C48.8957 23.4536 48.9081 23.142 48.7781 23.1373C46.6952 23.0624 44.6715 22.0669 44.6041 19.4659L44.6084 19.0232L45.2303 9.65335C48.3153 11.5783 52.5695 13.5579 56.1752 15.721C56.2343 15.7564 60.2534 12.2935 62.8525 11.5367L63.3748 17.2903C63.2275 18.9108 60.7336 19.724 59.5405 20.1688C59.4116 20.2169 59.4191 20.624 59.5521 20.6126C60.8896 20.4976 65.4069 19.0719 65.4069 19.0719L64.412 8.63255C64.412 8.63255 64.1752 8.44334 63.9853 8.38321C63.7953 8.32309 63.652 8.39187 63.652 8.39187C62.6375 8.86533 59.3925 10.1746 55.575 14.0632C52.5135 12.615 48.1265 9.93592 45.1363 7.33459C44.6531 6.9143 44.5597 7.0545 44.2104 6.96654C43.996 6.9126 43.7087 7.00225 43.7087 7.00225L42.335 25.4407C44.051 24.7993 45.8101 24.5712 47.5466 23.9781C47.5466 23.9781 48.6005 23.8004 48.8163 23.547V23.547Z" stroke="white" stroke-width="0.15305" stroke-miterlimit="10"/>
<path fill-rule="evenodd" clip-rule="evenodd" d="M53.8646 20.4425C52.3871 20.8544 51.1842 21.6639 49.6738 22.9132C49.6143 22.9932 49.6352 23.2154 49.72 23.165C53.1581 21.1239 54.9072 20.6034 58.6887 20.4936C58.7286 20.4924 58.7292 20.4176 58.6894 20.4172C58.2451 20.4126 55.5551 19.9446 53.8646 20.4425Z" fill="white"/>
<path d="M53.8646 20.4425C52.3871 20.8544 51.1842 21.6639 49.6738 22.9132C49.6143 22.9932 49.6352 23.2154 49.72 23.165C53.1581 21.1239 54.9072 20.6034 58.6887 20.4936C58.7286 20.4924 58.7292 20.4176 58.6894 20.4172C58.2451 20.4126 55.5551 19.9446 53.8646 20.4425Z" stroke="white" stroke-width="0.15305" stroke-miterlimit="10"/>
<path fill-rule="evenodd" clip-rule="evenodd" d="M62.8147 7.96898C63.2979 8.1469 63.1904 7.9189 62.8324 7.76494C58.4707 5.88934 56.2339 5.32205 52.692 5.48405C50.2032 5.59596 48.1053 6.05984 45.5293 6.56421C44.9515 6.67736 45.4236 6.82637 45.8524 6.76608C47.3728 6.552 50.2188 6.38769 51.0792 6.34441C52.8336 6.25599 53.9909 6.19138 57.057 6.66298C58.6746 6.91169 60.3975 7.07864 62.8147 7.96898" fill="white"/>
<path d="M62.8147 7.96898C63.2979 8.1469 63.1904 7.9189 62.8324 7.76494C58.4707 5.88934 56.2339 5.32205 52.692 5.48405C50.2032 5.59596 48.1053 6.05984 45.5293 6.56421C44.9515 6.67736 45.4236 6.82637 45.8524 6.76608C47.3728 6.552 50.2188 6.38769 51.0792 6.34441C52.8336 6.25599 53.9909 6.19138 57.057 6.66298C58.6746 6.91169 60.3975 7.07864 62.8147 7.96898V7.96898Z" stroke="white" stroke-width="0.15305" stroke-miterlimit="10"/>
<path fill-rule="evenodd" clip-rule="evenodd" d="M97.5932 20.5977C97.4998 20.5184 97.1876 20.506 97.183 20.6357C97.108 22.716 97.2184 24.4515 94.9225 24.9505L94.4792 24.9462L84.8563 24.7566C86.1366 20.3042 88.5478 15.2859 90.0294 12.8487C89.1399 11.2262 87.7056 9.59742 85.5327 6.1937L91.2943 5.67217C92.8792 5.94916 93.7649 8.69657 94.2104 9.88818C94.2586 10.0171 94.666 10.0094 94.6548 9.87674C94.5397 8.54091 93.1119 4.02981 93.1119 4.02981L82.6581 5.02342C82.6581 5.02342 82.4687 5.25976 82.4086 5.44958C82.3483 5.63924 82.4173 5.78238 82.4173 5.78238C85.6451 9.49 86.4674 10.4162 88.4138 12.8348C85.0905 16.9862 83.8559 19.0725 81.3586 24.2726C81.0814 24.8497 81.078 24.8483 80.9899 25.1973C80.936 25.4113 81.0256 25.6982 81.0256 25.6982L99.4895 27.0701C98.8471 25.3565 98.6188 23.5996 98.0249 21.8656C98.0249 21.8656 97.847 20.8131 97.5932 20.5977" fill="white"/>
<path d="M97.5932 20.5977C97.4998 20.5184 97.1876 20.506 97.183 20.6357C97.108 22.716 97.2184 24.4515 94.9225 24.9505L94.4792 24.9462L84.8563 24.7566C86.1366 20.3042 88.5478 15.2859 90.0294 12.8487C89.1399 11.2262 87.7056 9.59742 85.5327 6.1937L91.2943 5.67217C92.8792 5.94916 93.7649 8.69657 94.2104 9.88818C94.2586 10.0171 94.666 10.0094 94.6548 9.87674C94.5397 8.54091 93.1119 4.02981 93.1119 4.02981L82.6581 5.02342C82.6581 5.02342 82.4687 5.25976 82.4086 5.44958C82.3483 5.63924 82.4173 5.78238 82.4173 5.78238C85.6451 9.49 86.4674 10.4162 88.4138 12.8348C85.0905 16.9862 83.8559 19.0725 81.3586 24.2726C81.0814 24.8497 81.078 24.8483 80.9899 25.1973C80.936 25.4113 81.0256 25.6982 81.0256 25.6982L99.4895 27.0701C98.8471 25.3565 98.6188 23.5996 98.0249 21.8656C98.0249 21.8656 97.847 20.8131 97.5932 20.5977V20.5977Z" stroke="white" stroke-width="0.15305" stroke-miterlimit="10"/>
<path fill-rule="evenodd" clip-rule="evenodd" d="M94.5016 15.6108C94.9141 17.0863 95.7247 18.2876 96.9757 19.7958C97.0559 19.8554 97.2784 19.8345 97.228 19.7497C95.184 16.3164 94.6628 14.5697 94.5528 10.7935C94.5517 10.7536 94.4767 10.753 94.4764 10.7928C94.4718 11.2365 94.0031 13.9228 94.5016 15.6108" fill="white"/>
<path d="M94.5016 15.6108C94.9141 17.0863 95.7247 18.2876 96.9757 19.7958C97.0559 19.8554 97.2784 19.8345 97.228 19.7497C95.184 16.3164 94.6628 14.5697 94.5528 10.7935C94.5528 10.7536 94.4764 10.753 94.4764 10.7928C94.4718 11.2365 94.0031 13.9228 94.5016 15.6108V15.6108Z" stroke="white" stroke-width="0.15305" stroke-miterlimit="10"/>
<path fill-rule="evenodd" clip-rule="evenodd" d="M81.9555 6.66392C82.1337 6.18134 81.9054 6.28892 81.7513 6.6463C79.8729 11.0019 79.305 13.2356 79.4672 16.7728C79.5792 19.2582 80.0437 21.3531 80.5489 23.9255C80.6622 24.5025 80.8114 24.0312 80.7509 23.603C80.5367 22.0846 80.3721 19.2426 80.3288 18.3833C80.2402 16.6313 80.1756 15.4757 80.6477 12.4138C80.8968 10.7983 81.0639 9.07775 81.9555 6.66392" fill="white"/>
<path d="M81.9555 6.66392C82.1337 6.18134 81.9054 6.28892 81.7513 6.6463C79.8729 11.0019 79.305 13.2356 79.4672 16.7728C79.5792 19.2582 80.0437 21.3531 80.5489 23.9255C80.6622 24.5025 80.8114 24.0312 80.7509 23.603C80.5367 22.0846 80.3721 19.2426 80.3288 18.3833C80.2402 16.6313 80.1756 15.4757 80.6477 12.4138C80.8968 10.7983 81.0639 9.07775 81.9555 6.66392V6.66392Z" stroke="white" stroke-width="0.15305" stroke-miterlimit="10"/>
<path fill-rule="evenodd" clip-rule="evenodd" d="M9.72817 20.6166C9.82164 20.5372 10.1337 20.5248 10.1384 20.6546C10.2134 22.7348 9.73251 25.5185 12.3371 25.5858L12.7804 25.5816L22.465 24.9605C21.4238 21.9551 14.1821 15.6043 14.205 14.7172C14.2068 14.6484 19.7798 10.0286 22.2208 5.59607L16.4592 5.07454C14.8743 4.91996 13.5564 8.71553 13.1109 9.90715C13.0628 10.0359 12.6552 10.0282 12.6666 9.89555C12.7817 8.55988 14.2094 4.04878 14.2094 4.04878L24.6632 5.04223C24.6632 5.04223 24.8526 5.27873 24.9129 5.46855C24.973 5.65821 24.9041 5.80135 24.9041 5.80135C24.43 6.81427 20.5571 11.1207 16.1294 14.8266C22.1624 20.9118 24.6034 23.0497 25.9629 24.2916C26.4356 24.7235 26.2433 24.8673 26.3314 25.2162C26.3853 25.4301 26.2957 25.7171 26.2957 25.7171L7.83179 27.089C8.47418 25.3753 8.70253 23.6185 9.29638 21.8845C9.29638 21.8845 9.47432 20.8321 9.72817 20.6166" fill="white"/>
<path d="M9.72817 20.6166C9.82164 20.5372 10.1337 20.5248 10.1384 20.6546C10.2134 22.7348 9.73251 25.5185 12.3371 25.5858L12.7804 25.5816L22.465 24.9605C21.4238 21.9551 14.1821 15.6043 14.205 14.7172C14.205 14.6484 19.7798 10.0286 22.2208 5.59607L16.4592 5.07454C14.8743 4.91996 13.5564 8.71553 13.1109 9.90715C13.0628 10.0359 12.6552 10.0282 12.6666 9.89555C12.7817 8.55988 14.2094 4.04878 14.2094 4.04878L24.6632 5.04223C24.6632 5.04223 24.8526 5.27873 24.9129 5.46855C24.973 5.65821 24.9041 5.80135 24.9041 5.80135C24.43 6.81427 20.5571 11.1207 16.1294 14.8266C22.1624 20.9118 24.6034 23.0497 25.9629 24.2916C26.4356 24.7235 26.2433 24.8673 26.3314 25.2162C26.3853 25.4301 26.2957 25.7171 26.2957 25.7171L7.83179 27.089C8.47418 25.3753 8.70253 23.6185 9.29638 21.8845C9.29638 21.8845 9.47432 20.8321 9.72817 20.6166V20.6166Z" stroke="white" stroke-width="0.15305" stroke-miterlimit="10"/>
<path fill-rule="evenodd" clip-rule="evenodd" d="M12.8194 15.6297C12.4069 17.1054 11.5962 18.3066 10.3452 19.8148C10.2652 19.8743 10.0425 19.8535 10.0931 19.7687C12.137 16.3354 12.6583 14.5886 12.7682 10.8124C12.7693 10.7725 12.8443 10.7719 12.8447 10.8117C12.8493 11.2554 13.3179 13.9419 12.8194 15.6297" fill="white"/>
<path d="M12.8194 15.6297C12.4069 17.1054 11.5962 18.3066 10.3452 19.8148C10.2652 19.8743 10.0425 19.8535 10.0931 19.7687C12.137 16.3354 12.6583 14.5886 12.7682 10.8124C12.7682 10.7725 12.8447 10.7719 12.8447 10.8117C12.8493 11.2554 13.3179 13.9419 12.8194 15.6297V15.6297Z" stroke="white" stroke-width="0.15305" stroke-miterlimit="10"/>
<path fill-rule="evenodd" clip-rule="evenodd" d="M25.3658 6.68275C25.1876 6.20032 25.416 6.30775 25.57 6.66513C27.4484 11.0209 28.0163 13.2545 27.8541 16.7916C27.742 19.277 27.2776 21.372 26.7724 23.9444C26.6591 24.5214 26.5099 24.0501 26.5704 23.6219C26.7846 22.1036 26.9492 19.2615 26.9927 18.4022C27.0811 16.6503 27.1457 15.4946 26.6736 12.4326C26.4245 10.8173 26.2574 9.09673 25.3658 6.68275Z" fill="white"/>
<path d="M25.3658 6.68275C25.1876 6.20032 25.416 6.30775 25.57 6.66513C27.4484 11.0209 28.0163 13.2545 27.8541 16.7916C27.742 19.277 27.2776 21.372 26.7724 23.9444C26.6591 24.5214 26.5099 24.0501 26.5704 23.6219C26.7846 22.1036 26.9492 19.2615 26.9927 18.4022C27.0811 16.6503 27.1457 15.4946 26.6736 12.4326C26.4245 10.8173 26.2574 9.09673 25.3658 6.68275Z" stroke="white" stroke-width="0.15305" stroke-miterlimit="10"/>
<path d="M33.1222 16.666C33.1222 25.3136 26.0942 32.3319 17.4348 32.3319C8.77531 32.3319 1.74731 25.3136 1.74731 16.666C1.74731 8.01844 8.77531 1.00015 17.4348 1.00015C26.0942 1.00015 33.1222 8.01844 33.1222 16.666V16.666Z" stroke="white" stroke-width="1.8626" stroke-miterlimit="10"/>
<path d="M69.329 16.6658C69.329 25.3134 62.301 32.3318 53.6416 32.3318C44.9821 32.3317 37.9541 25.3134 37.9541 16.6658C37.9541 8.01828 44.9821 0.999993 53.6416 0.999993C62.301 0.999993 69.329 8.01828 69.329 16.6658V16.6658Z" stroke="white" stroke-width="1.8626" stroke-miterlimit="10"/>
<path d="M105.536 16.6658C105.536 25.3134 98.5078 32.3318 89.8484 32.3318C81.1888 32.3317 74.1609 25.3134 74.1609 16.6658C74.1609 8.01828 81.1888 0.999993 89.8484 0.999993C98.5078 0.999993 105.536 8.01828 105.536 16.6658V16.6658Z" stroke="white" stroke-width="1.8626" stroke-miterlimit="10"/>
</svg>
