
<svg width="106" height="34" viewBox="0 0 106 34" fill="none" xmlns="http://www.w3.org/2000/svg">
<path fill-rule="evenodd" clip-rule="evenodd" d="M48.0688 23.547C48.1483 23.4536 48.1606 23.142 48.0306 23.1373C45.9478 23.0624 43.9241 22.0669 43.8567 19.4659L43.861 19.0232L44.4829 9.65335C47.5678 11.5783 51.822 13.5579 55.4278 15.721C55.4868 15.7564 59.5059 12.2935 62.1051 11.5367L62.6274 17.2903C62.4801 18.9108 59.9862 19.724 58.793 20.1688C58.6641 20.2169 58.6717 20.624 58.8046 20.6126C60.1422 20.4976 64.6594 19.0719 64.6594 19.0719L63.6646 8.63255C63.6646 8.63255 63.4278 8.44334 63.2378 8.38321C63.0478 8.32309 62.9046 8.39187 62.9046 8.39187C61.8901 8.86533 58.6451 10.1746 54.8276 14.0632C51.7661 12.615 47.3791 9.93592 44.3889 7.33459C43.9057 6.9143 43.8123 7.0545 43.463 6.96654C43.2486 6.9126 42.9612 7.00225 42.9612 7.00225L41.5875 25.4407C43.3036 24.7993 45.0627 24.5712 46.7991 23.9781C46.7991 23.9781 47.853 23.8004 48.0688 23.547" fill="#5F7DE4"/>
<path d="M48.0688 23.547C48.1483 23.4536 48.1606 23.142 48.0306 23.1373C45.9478 23.0624 43.9241 22.0669 43.8567 19.4659L43.861 19.0232L44.4829 9.65335C47.5678 11.5783 51.822 13.5579 55.4278 15.721C55.4868 15.7564 59.5059 12.2935 62.1051 11.5367L62.6274 17.2903C62.4801 18.9108 59.9862 19.724 58.793 20.1688C58.6641 20.2169 58.6717 20.624 58.8046 20.6126C60.1422 20.4976 64.6594 19.0719 64.6594 19.0719L63.6646 8.63255C63.6646 8.63255 63.4278 8.44334 63.2378 8.38321C63.0478 8.32309 62.9046 8.39187 62.9046 8.39187C61.8901 8.86533 58.6451 10.1746 54.8276 14.0632C51.7661 12.615 47.3791 9.93592 44.3889 7.33459C43.9057 6.9143 43.8123 7.0545 43.463 6.96654C43.2486 6.9126 42.9612 7.00225 42.9612 7.00225L41.5875 25.4407C43.3036 24.7993 45.0627 24.5712 46.7991 23.9781C46.7991 23.9781 47.853 23.8004 48.0688 23.547V23.547Z" stroke="#5F7DE4" stroke-width="0.15305" stroke-miterlimit="10"/>
<path fill-rule="evenodd" clip-rule="evenodd" d="M53.1174 20.4425C51.6399 20.8544 50.437 21.6639 48.9266 22.9132C48.8671 22.9932 48.888 23.2154 48.9728 23.165C52.4109 21.1239 54.16 20.6034 57.9416 20.4936C57.9814 20.4924 57.9821 20.4176 57.9422 20.4172C57.4979 20.4126 54.8079 19.9446 53.1174 20.4425Z" fill="#5F7DE4"/>
<path d="M53.1174 20.4425C51.6399 20.8544 50.437 21.6639 48.9266 22.9132C48.8671 22.9932 48.888 23.2154 48.9728 23.165C52.4109 21.1239 54.16 20.6034 57.9416 20.4936C57.9814 20.4924 57.9821 20.4176 57.9422 20.4172C57.4979 20.4126 54.8079 19.9446 53.1174 20.4425Z" stroke="#5F7DE4" stroke-width="0.15305" stroke-miterlimit="10"/>
<path fill-rule="evenodd" clip-rule="evenodd" d="M62.0674 7.96898C62.5506 8.1469 62.443 7.9189 62.085 7.76494C57.7234 5.88934 55.4866 5.32205 51.9447 5.48405C49.4559 5.59596 47.358 6.05984 44.782 6.56421C44.2042 6.67736 44.6763 6.82637 45.1051 6.76608C46.6255 6.552 49.4715 6.38769 50.3318 6.34441C52.0863 6.25599 53.2436 6.19138 56.3097 6.66298C57.9273 6.91169 59.6502 7.07864 62.0674 7.96898" fill="#5F7DE4"/>
<path d="M62.0674 7.96898C62.5506 8.1469 62.443 7.9189 62.085 7.76494C57.7234 5.88934 55.4866 5.32205 51.9447 5.48405C49.4559 5.59596 47.358 6.05984 44.782 6.56421C44.2042 6.67736 44.6763 6.82637 45.1051 6.76608C46.6255 6.552 49.4715 6.38769 50.3318 6.34441C52.0863 6.25599 53.2436 6.19138 56.3097 6.66298C57.9273 6.91169 59.6502 7.07864 62.0674 7.96898V7.96898Z" stroke="#5F7DE4" stroke-width="0.15305" stroke-miterlimit="10"/>
<path fill-rule="evenodd" clip-rule="evenodd" d="M96.8458 20.5977C96.7524 20.5184 96.4402 20.506 96.4355 20.6357C96.3606 22.716 96.4709 24.4515 94.175 24.9505L93.7317 24.9462L84.1089 24.7566C85.3892 20.3042 87.8004 15.2859 89.282 12.8487C88.3924 11.2262 86.9581 9.59742 84.7853 6.1937L90.5469 5.67217C92.1317 5.94916 93.0174 8.69657 93.4629 9.88818C93.5111 10.0171 93.9186 10.0094 93.9073 9.87674C93.7923 8.54091 92.3645 4.02981 92.3645 4.02981L81.9107 5.02342C81.9107 5.02342 81.7213 5.25976 81.6612 5.44958C81.6009 5.63924 81.6698 5.78238 81.6698 5.78238C84.8976 9.49 85.72 10.4162 87.6664 12.8348C84.343 16.9862 83.1085 19.0725 80.6112 24.2726C80.334 24.8497 80.3306 24.8483 80.2425 25.1973C80.1885 25.4113 80.2782 25.6982 80.2782 25.6982L98.7421 27.0701C98.0997 25.3565 97.8714 23.5996 97.2775 21.8656C97.2775 21.8656 97.0996 20.8131 96.8458 20.5977" fill="#5F7DE4"/>
<path d="M96.8458 20.5977C96.7524 20.5184 96.4402 20.506 96.4355 20.6357C96.3606 22.716 96.4709 24.4515 94.175 24.9505L93.7317 24.9462L84.1089 24.7566C85.3892 20.3042 87.8004 15.2859 89.282 12.8487C88.3924 11.2262 86.9581 9.59742 84.7853 6.1937L90.5469 5.67217C92.1317 5.94916 93.0174 8.69657 93.4629 9.88818C93.5111 10.0171 93.9186 10.0094 93.9073 9.87674C93.7923 8.54091 92.3645 4.02981 92.3645 4.02981L81.9107 5.02342C81.9107 5.02342 81.7213 5.25976 81.6612 5.44958C81.6009 5.63924 81.6698 5.78238 81.6698 5.78238C84.8976 9.49 85.72 10.4162 87.6664 12.8348C84.343 16.9862 83.1085 19.0725 80.6112 24.2726C80.334 24.8497 80.3306 24.8483 80.2425 25.1973C80.1885 25.4113 80.2782 25.6982 80.2782 25.6982L98.7421 27.0701C98.0997 25.3565 97.8714 23.5996 97.2775 21.8656C97.2775 21.8656 97.0996 20.8131 96.8458 20.5977V20.5977Z" stroke="#5F7DE4" stroke-width="0.15305" stroke-miterlimit="10"/>
<path fill-rule="evenodd" clip-rule="evenodd" d="M93.7543 15.6108C94.1668 17.0863 94.9774 18.2876 96.2284 19.7958C96.3086 19.8554 96.531 19.8345 96.4807 19.7497C94.4367 16.3164 93.9155 14.5697 93.8054 10.7935C93.8044 10.7536 93.7294 10.753 93.7291 10.7928C93.7244 11.2365 93.2558 13.9228 93.7543 15.6108" fill="#5F7DE4"/>
<path d="M93.7543 15.6108C94.1668 17.0863 94.9774 18.2876 96.2284 19.7958C96.3086 19.8554 96.531 19.8345 96.4807 19.7497C94.4367 16.3164 93.9155 14.5697 93.8054 10.7935C93.8054 10.7536 93.7291 10.753 93.7291 10.7928C93.7244 11.2365 93.2558 13.9228 93.7543 15.6108V15.6108Z" stroke="#5F7DE4" stroke-width="0.15305" stroke-miterlimit="10"/>
<path fill-rule="evenodd" clip-rule="evenodd" d="M81.2082 6.66392C81.3864 6.18134 81.1581 6.28892 81.004 6.6463C79.1256 11.0019 78.5577 13.2356 78.7199 16.7728C78.8319 19.2582 79.2964 21.3531 79.8016 23.9255C79.9149 24.5025 80.064 24.0312 80.0036 23.603C79.7894 22.0846 79.6247 19.2426 79.5815 18.3833C79.4929 16.6313 79.4283 15.4757 79.9004 12.4138C80.1495 10.7983 80.3166 9.07775 81.2082 6.66392" fill="#5F7DE4"/>
<path d="M81.2082 6.66392C81.3864 6.18134 81.1581 6.28892 81.004 6.6463C79.1256 11.0019 78.5577 13.2356 78.7199 16.7728C78.8319 19.2582 79.2964 21.3531 79.8016 23.9255C79.9149 24.5025 80.064 24.0312 80.0036 23.603C79.7894 22.0846 79.6247 19.2426 79.5815 18.3833C79.4929 16.6313 79.4283 15.4757 79.9004 12.4138C80.1495 10.7983 80.3166 9.07775 81.2082 6.66392V6.66392Z" stroke="#5F7DE4" stroke-width="0.15305" stroke-miterlimit="10"/>
<path fill-rule="evenodd" clip-rule="evenodd" d="M8.98073 20.6166C9.0742 20.5372 9.3863 20.5248 9.39095 20.6546C9.466 22.7348 8.98507 25.5185 11.5896 25.5858L12.033 25.5816L21.7176 24.9605C20.6764 21.9551 13.4346 15.6043 13.4576 14.7172C13.4594 14.6484 19.0323 10.0286 21.4734 5.59607L15.7118 5.07454C14.1269 4.91996 12.809 8.71553 12.3635 9.90715C12.3154 10.0359 11.9077 10.0282 11.9191 9.89555C12.0342 8.55988 13.4619 4.04878 13.4619 4.04878L23.9158 5.04223C23.9158 5.04223 24.1051 5.27873 24.1654 5.46855C24.2256 5.65821 24.1566 5.80135 24.1566 5.80135C23.6825 6.81427 19.8097 11.1207 15.3819 14.8266C21.4149 20.9118 23.856 23.0497 25.2154 24.2916C25.6881 24.7235 25.4958 24.8673 25.584 25.2162C25.6379 25.4301 25.5482 25.7171 25.5482 25.7171L7.08435 27.089C7.72675 25.3753 7.9551 23.6185 8.54894 21.8845C8.54894 21.8845 8.72689 20.8321 8.98073 20.6166" fill="#5F7DE4"/>
<path d="M8.98073 20.6166C9.0742 20.5372 9.3863 20.5248 9.39095 20.6546C9.466 22.7348 8.98507 25.5185 11.5896 25.5858L12.033 25.5816L21.7176 24.9605C20.6764 21.9551 13.4346 15.6043 13.4576 14.7172C13.4576 14.6484 19.0323 10.0286 21.4734 5.59607L15.7118 5.07454C14.1269 4.91996 12.809 8.71553 12.3635 9.90715C12.3154 10.0359 11.9077 10.0282 11.9191 9.89555C12.0342 8.55988 13.4619 4.04878 13.4619 4.04878L23.9158 5.04223C23.9158 5.04223 24.1051 5.27873 24.1654 5.46855C24.2256 5.65821 24.1566 5.80135 24.1566 5.80135C23.6825 6.81427 19.8097 11.1207 15.3819 14.8266C21.4149 20.9118 23.856 23.0497 25.2154 24.2916C25.6881 24.7235 25.4958 24.8673 25.584 25.2162C25.6379 25.4301 25.5482 25.7171 25.5482 25.7171L7.08435 27.089C7.72675 25.3753 7.9551 23.6185 8.54894 21.8845C8.54894 21.8845 8.72689 20.8321 8.98073 20.6166V20.6166Z" stroke="#5F7DE4" stroke-width="0.15305" stroke-miterlimit="10"/>
<path fill-rule="evenodd" clip-rule="evenodd" d="M12.0722 15.6297C11.6597 17.1054 10.849 18.3066 9.59803 19.8148C9.51797 19.8743 9.29534 19.8535 9.34589 19.7687C11.3898 16.3354 11.9111 14.5886 12.021 10.8124C12.0221 10.7725 12.0971 10.7719 12.0975 10.8117C12.1021 11.2554 12.5708 13.9419 12.0722 15.6297" fill="#5F7DE4"/>
<path d="M12.0722 15.6297C11.6597 17.1054 10.849 18.3066 9.59803 19.8148C9.51797 19.8743 9.29534 19.8535 9.34589 19.7687C11.3898 16.3354 11.9111 14.5886 12.021 10.8124C12.021 10.7725 12.0975 10.7719 12.0975 10.8117C12.1021 11.2554 12.5708 13.9419 12.0722 15.6297V15.6297Z" stroke="#5F7DE4" stroke-width="0.15305" stroke-miterlimit="10"/>
<path fill-rule="evenodd" clip-rule="evenodd" d="M24.6183 6.68275C24.4401 6.20032 24.6686 6.30775 24.8225 6.66513C26.7009 11.0209 27.2688 13.2545 27.1067 16.7916C26.9946 19.277 26.5301 21.372 26.025 23.9444C25.9117 24.5214 25.7625 24.0501 25.8229 23.6219C26.0372 22.1036 26.2018 19.2615 26.2452 18.4022C26.3337 16.6503 26.3983 15.4946 25.9262 12.4326C25.677 10.8173 25.5099 9.09673 24.6183 6.68275Z" fill="#5F7DE4"/>
<path d="M24.6183 6.68275C24.4401 6.20032 24.6686 6.30775 24.8225 6.66513C26.7009 11.0209 27.2688 13.2545 27.1067 16.7916C26.9946 19.277 26.5301 21.372 26.025 23.9444C25.9117 24.5214 25.7625 24.0501 25.8229 23.6219C26.0372 22.1036 26.2018 19.2615 26.2452 18.4022C26.3337 16.6503 26.3983 15.4946 25.9262 12.4326C25.677 10.8173 25.5099 9.09673 24.6183 6.68275Z" stroke="#5F7DE4" stroke-width="0.15305" stroke-miterlimit="10"/>
<path d="M32.3749 16.666C32.3749 25.3136 25.3469 32.3319 16.6875 32.3319C8.028 32.3319 1 25.3136 1 16.666C1 8.01844 8.028 1.00015 16.6875 1.00015C25.3469 1.00015 32.3749 8.01844 32.3749 16.666V16.666Z" stroke="#5F7DE4" stroke-width="1.8626" stroke-miterlimit="10"/>
<path d="M68.5817 16.6658C68.5817 25.3134 61.5537 32.3318 52.8943 32.3318C44.2348 32.3317 37.2068 25.3134 37.2068 16.6658C37.2068 8.01828 44.2348 0.999993 52.8943 0.999993C61.5537 0.999993 68.5817 8.01828 68.5817 16.6658V16.6658Z" stroke="#5F7DE4" stroke-width="1.8626" stroke-miterlimit="10"/>
<path d="M104.789 16.6658C104.789 25.3134 97.7606 32.3318 89.1012 32.3318C80.4416 32.3317 73.4137 25.3134 73.4137 16.6658C73.4137 8.01828 80.4416 0.999993 89.1012 0.999993C97.7606 0.999993 104.789 8.01828 104.789 16.6658V16.6658Z" stroke="#5F7DE4" stroke-width="1.8626" stroke-miterlimit="10"/>
</svg>
