<svg width="118" height="32" viewBox="0 0 118 32" fill="none" xmlns="http://www.w3.org/2000/svg">
<g clip-path="url(#clip0_202_997)">
<path d="M116.995 15.8513C116.995 24.4374 110.035 31.3977 101.448 31.3977C92.8623 31.3977 85.9021 24.4374 85.9021 15.8513C85.9021 7.26527 92.8623 0.304993 101.448 0.304993C110.035 0.304993 116.995 7.26527 116.995 15.8513V15.8513Z" fill="#818F3D" stroke="white" stroke-width="0.621621"/>
<path d="M74.2273 15.8513C74.2273 24.4374 67.2671 31.3977 58.681 31.3977C50.0948 31.3977 43.1346 24.4374 43.1346 15.8513C43.1346 7.26527 50.0948 0.304993 58.681 0.304993C67.2671 0.304993 74.2273 7.26527 74.2273 15.8513Z" fill="#818F3D" stroke="white" stroke-width="0.621621"/>
<path d="M31.3976 15.8513C31.3976 24.4374 24.4374 31.3977 15.8513 31.3977C7.26514 31.3977 0.304932 24.4374 0.304932 15.8513C0.304932 7.26527 7.26514 0.304993 15.8513 0.304993C24.4374 0.304993 31.3976 7.26527 31.3976 15.8513Z" fill="#818F3D" stroke="white" stroke-width="0.621621"/>
<path d="M115.044 15.8513C115.044 23.3599 108.957 29.4468 101.448 29.4468C93.94 29.4468 87.8529 23.3599 87.8529 15.8513C87.8529 8.34276 93.94 2.25586 101.448 2.25586C108.957 2.25586 115.044 8.34276 115.044 15.8513V15.8513Z" fill="#818F3D" stroke="white" stroke-width="0.745944"/>
<path d="M75.6108 15.3054H82.3986C82.0713 14.2953 81.9086 13.6372 81.8926 12.7394C82.6361 14.2876 83.603 15.0932 84.7724 15.8508C83.603 16.5769 82.6783 17.4632 81.8926 18.9628C81.9422 17.9877 82.078 17.3985 82.4087 16.3249H75.6108V15.3054Z" fill="#818F3D"/>
<path d="M32.7812 15.3054H39.569C39.2417 14.2953 39.079 13.6372 39.063 12.7394C39.8066 14.2876 40.7734 15.0932 41.9428 15.8508C40.7734 16.5769 39.8487 17.4632 39.063 18.9628C39.1126 17.9877 39.2485 17.3985 39.5792 16.3249H32.7812V15.3054Z" fill="#818F3D"/>
<path d="M11.1731 21.8766H13.8733V17.9429L14.8931 16.6729L17.8604 21.8766H21.0268L16.8405 14.9563L20.8301 9.82592H17.467L14.7499 13.8295C14.4633 14.2598 14.1768 14.6891 13.9097 15.1535H13.8733V9.82592H11.1731V21.8766Z" fill="white"/>
<path d="M54.5505 21.3035C55.2281 21.6804 56.5878 22.0568 57.9646 22.0568C61.2719 22.0568 62.8114 20.34 62.8114 18.3197C62.8114 16.6196 61.8278 15.5104 59.6984 14.7231C58.1249 14.1331 57.4644 13.7936 57.4644 13.0257C57.4644 12.4163 58.0375 11.8627 59.2175 11.8627C60.3782 11.8627 61.2548 12.2026 61.721 12.4357L62.3281 10.2533C61.6118 9.91279 60.6284 9.64574 59.2516 9.64574C56.4276 9.64574 54.6914 11.2022 54.6914 13.2588C54.6914 15.0096 56.0148 16.1198 58.0181 16.8332C59.4677 17.3363 60.0383 17.7637 60.0383 18.516C60.0383 19.3027 59.3778 19.8199 58.1249 19.8199C56.9642 19.8199 55.8181 19.4436 55.1042 19.0696L54.5505 21.3035Z" fill="white"/>
<path d="M97.6187 21.9218H100.319V17.5947C100.569 17.6482 100.892 17.6652 101.249 17.6652C102.859 17.6652 104.236 17.2548 105.165 16.3977C105.899 15.7347 106.273 14.7149 106.273 13.5348C106.273 12.3547 105.773 11.3543 104.986 10.7472C104.182 10.1013 102.983 9.78083 101.302 9.78083C99.6389 9.78083 98.4588 9.88762 97.6187 10.031V21.9218ZM100.319 11.9443C100.516 11.891 100.892 11.8546 101.429 11.8546C102.805 11.8546 103.573 12.5174 103.573 13.6247C103.573 14.8412 102.679 15.5744 101.232 15.5744C100.819 15.5744 100.552 15.5551 100.319 15.5017V11.9443Z" fill="white"/>
</g>
<defs>
<clipPath id="clip0_202_997">
<path d="M0 4.24839C0 1.90207 1.90207 0 4.24839 0H113.113C115.46 0 117.362 1.90207 117.362 4.24839V27.4542C117.362 29.8006 115.46 31.7026 113.113 31.7026H4.24839C1.90207 31.7026 0 29.8006 0 27.4542V4.24839Z" fill="white"/>
</clipPath>
</defs>
</svg>
