<svg xmlns="http://www.w3.org/2000/svg" width="247.605" height="66.92" viewBox="0 0 65.512 17.706">
<g transform="matrix(.35278 0 0 -.35278 -75.322 246.291)"><circle cx="374.119" cy="-673.053" r="24.613" style="fill:none;fill-opacity:1;stroke:#fff;stroke-width:.965197;stroke-miterlimit:4;stroke-dasharray:none;stroke-opacity:1" transform="scale(1 -1)"/><circle cx="306.411" cy="-673.053" r="24.613" style="fill:none;fill-opacity:1;stroke:#fff;stroke-width:.965197;stroke-miterlimit:4;stroke-dasharray:none;stroke-opacity:1" transform="scale(1 -1)"/><circle cx="238.605" cy="-673.053" r="24.613" style="fill:none;fill-opacity:1;stroke:#fff;stroke-width:.965197;stroke-miterlimit:4;stroke-dasharray:none;stroke-opacity:1" transform="scale(1 -1)"/><circle cx="374.119" cy="-673.053" r="21.524" style="fill:none;fill-opacity:1;stroke:#fff;stroke-width:1.18095;stroke-miterlimit:4;stroke-dasharray:none;stroke-opacity:1" transform="scale(1 -1)"/><g style="fill:#fff;fill-opacity:1;stroke:#fff;stroke-width:16.2;stroke-miterlimit:4;stroke-dasharray:none;stroke-opacity:1"><path d="M5282.078 1693.57h436.79c-21.05 65-31.52 107.34-32.57 165.11 47.85-99.61 110.07-151.44 185.31-200.19-75.24-46.72-134.73-103.75-185.31-200.28 3.2 62.78 11.95 100.67 33.24 169.77h-437.46z" style="clip-rule:evenodd;fill:#fff;fill-opacity:1;stroke:#fff;stroke-width:16.2;stroke-miterlimit:4;stroke-dasharray:none;stroke-opacity:1" transform="matrix(.0246 0 0 .0246 203.258 632.25)"/></g><g style="fill:#fff;fill-opacity:1;stroke:#fff;stroke-width:16.2;stroke-miterlimit:4;stroke-dasharray:none;stroke-opacity:1"><path d="M5282.078 1693.57h436.79c-21.05 65-31.52 107.34-32.57 165.11 47.85-99.61 110.07-151.44 185.31-200.19-75.24-46.72-134.73-103.75-185.31-200.28 3.2 62.78 11.95 100.67 33.24 169.77h-437.46z" style="clip-rule:evenodd;fill:#fff;fill-opacity:1;stroke:#fff;stroke-width:16.2;stroke-miterlimit:4;stroke-dasharray:none;stroke-opacity:1" transform="matrix(.0246 0 0 .0246 135.452 632.25)"/></g><path d="M-176.862 1095.891h173.75v253.12l65.63 81.72 190.94-334.84h203.75l-269.38 445.31 256.72 330.15h-216.41l-174.84-257.65c-18.44-27.66-36.87-55.31-54.06-85.16h-2.35v342.81h-173.75Z" style="fill:#fff;fill-opacity:1;stroke:none" transform="matrix(.0246 0 0 .0246 235.55 636.55)"/><path d="M2995.13 1261.505c43.59-24.22 131.09-48.44 219.68-48.44 212.82 0 311.88 110.47 311.88 240.47 0 109.38-63.28 180.78-200.31 231.41-101.25 37.97-143.75 59.84-143.75 109.22 0 39.22 36.87 74.84 112.81 74.84 74.69 0 131.09-21.87 161.09-36.87l39.06 140.46c-46.09 21.88-109.37 39.07-197.96 39.07-181.72 0-293.44-100.16-293.44-232.5 0-112.66 85.15-184.07 214.06-230 93.28-32.35 130-59.85 130-108.28 0-50.63-42.5-83.91-123.12-83.91-74.69 0-148.44 24.22-194.38 48.28z" style="fill:#fff;fill-opacity:1;stroke:none" transform="matrix(.0246 0 0 .0246 226.183 633.383)"/><path d="M368.056 663.442h4.274v6.85c.396-.084.908-.111 1.473-.111 2.548 0 4.728.65 6.2 2.006 1.161 1.05 1.753 2.665 1.753 4.533 0 1.868-.792 3.452-2.037 4.413-1.272 1.022-3.172 1.53-5.832 1.53-2.633 0-4.501-.17-5.831-.396zm4.274 15.796c.312.084.908.142 1.757.142 2.18 0 3.395-1.05 3.395-2.803 0-1.925-1.415-3.086-3.706-3.086-.654 0-1.077.03-1.446.115z" style="fill:#fff;fill-opacity:1;stroke:none;stroke-width:.196824"/></g></svg>
