<svg xmlns="http://www.w3.org/2000/svg" xml:space="preserve" width="281.178" height="126.416"><path d="M39.899 73.202c.096-.094.281-.281.375-.375-1.031-1.595-1.781-3.471-2.344-5.159L5 68.137l32.271 8.067c.847-1.031 1.691-2.064 2.628-3.002zM25.827 12.598l18.857 28.988c1.688-1.5 3.471-2.908 5.348-3.847zm47.658 23.641L67.669 10.91l-.563 24.767c1.781.47 3.471 1.032 5.158 1.783zM9.411 99.376l26.549-2.158c-.939-1.875-1.594-3.846-1.878-6.003Zm81.805-69.798c1.688.188 3.377.563 4.973 1.22L97.783 5Zm-15.291 7.974c-1.033 1.032-2.064 2.252-2.721 3.472-8.537-5.348-19.982-4.222-27.395 3.19-7.975 7.974-8.629 20.451-1.969 29.176-.752.563-1.314 1.125-1.971 1.783-7.131 7.129-7.131 18.762 0 25.893 5.158 5.158 12.905 5.97 19.23 4.221 2.62-.725 6.336-2.904 5.937-5.593 0 0-9.375-9.085-12.05-16.2-2.676-7.113.676-21.48 5.972-25.857 5.297-4.378 11.96-9.281 22.146-8.85 5.093.214 10.95 3.38 15.649 5.031 4.697 1.65 8.416-1.913 8.416-1.913 1.692-4.881.993-8.513-4.886-14.07-6.385-6.036-19.136-7.507-26.358-.283Z" style="fill:#7d923a;fill-opacity:.80203038"/><path fill="none" stroke-miterlimit="10" d="M241.071 47.334c-7.631 0-14.553 3.026-19.643 7.939-5.09-4.913-12.012-7.939-19.643-7.939-7.633 0-14.553 3.026-19.643 7.939-5.09-4.913-12.012-7.939-19.644-7.939-7.976 0-15.177 3.305-20.321 8.614-5.145-5.309-12.344-8.614-20.32-8.614-7.975 0-15.176 3.305-20.32 8.614-5.143-5.309-12.344-8.614-20.32-8.614-15.629 0-28.301 12.671-28.301 28.301 0 15.631 12.672 28.301 28.301 28.301 7.977 0 15.178-3.305 20.32-8.613 5.145 5.309 12.346 8.613 20.32 8.613 7.977 0 15.176-3.305 20.32-8.613 5.145 5.309 12.346 8.613 20.321 8.613 7.632 0 14.554-3.027 19.644-7.938 5.09 4.91 12.01 7.938 19.643 7.938 7.631 0 14.553-3.027 19.643-7.938 5.09 4.91 12.012 7.938 19.643 7.938 15.631 0 28.301-12.67 28.301-28.301 0-15.629-12.67-28.301-28.301-28.301z" style="fill:#fff;stroke:#7d923a;stroke-width:3.61290002;stroke-miterlimit:10;fill-opacity:0"/><path d="M368.844 303.219c1.859 0 3.441.271 4.746.811 1.305.542 2.365 1.256 3.184 2.145a8.241 8.241 0 0 1 1.791 3.038c.375 1.14.561 2.318.561 3.539 0 1.193-.186 2.366-.561 3.518a8.21 8.21 0 0 1-1.791 3.059c-.818.889-1.879 1.604-3.184 2.145-1.305.541-2.887.813-4.746.813h-6.869v10.656h-6.537v-29.722h13.406zm-1.791 13.987c.75 0 1.471-.057 2.165-.168a5.02 5.02 0 0 0 1.832-.644c.526-.319.95-.771 1.269-1.354.32-.583.479-1.346.479-2.29 0-.942-.158-1.706-.479-2.29a3.52 3.52 0 0 0-1.269-1.353 5.077 5.077 0 0 0-1.832-.645 13.688 13.688 0 0 0-2.165-.167h-5.078v8.909h5.078zM410.057 303.219c1.332 0 2.531.215 3.6.644 1.07.432 1.984 1.021 2.748 1.77a7.675 7.675 0 0 1 1.748 2.603 8.35 8.35 0 0 1 .604 3.185c0 1.749-.368 3.262-1.103 4.538-.736 1.276-1.938 2.247-3.602 2.913v.084c.805.221 1.471.561 1.998 1.02.527.459.957.998 1.291 1.623a7.63 7.63 0 0 1 .729 2.061c.152.75.256 1.5.312 2.248.028.473.056 1.027.083 1.666.027.639.076 1.291.146 1.955.068.666.18 1.299.334 1.896.15.596.381 1.102.686 1.518h-6.535c-.361-.942-.582-2.066-.666-3.371a50.933 50.933 0 0 0-.375-3.746c-.223-1.555-.693-2.691-1.416-3.414-.721-.721-1.9-1.084-3.537-1.084h-6.537v11.615h-6.535v-29.722h16.027zm-2.332 13.445c1.5 0 2.623-.333 3.371-.998.75-.667 1.125-1.749 1.125-3.248 0-1.442-.375-2.49-1.125-3.143-.748-.652-1.871-.979-3.371-.979h-7.16v8.367h7.16zM449.729 303.219l11.115 29.722h-6.785l-2.248-6.619h-11.115l-2.332 6.619h-6.578l11.24-29.722h6.703zm.375 18.233-3.746-10.907h-.084l-3.871 10.907h7.701zM479.244 325.615a4.692 4.692 0 0 0 1.436 1.685c.596.432 1.297.75 2.104.959a9.971 9.971 0 0 0 2.496.311c.584 0 1.207-.047 1.873-.146a6.49 6.49 0 0 0 1.873-.562 4.09 4.09 0 0 0 1.459-1.145c.387-.486.582-1.103.582-1.853 0-.806-.258-1.458-.77-1.956-.514-.5-1.188-.916-2.02-1.25a19.7 19.7 0 0 0-2.832-.873 76.389 76.389 0 0 1-3.205-.834 28.195 28.195 0 0 1-3.246-1.02c-1.055-.402-2-.922-2.832-1.561a7.352 7.352 0 0 1-2.018-2.394c-.514-.958-.771-2.116-.771-3.477 0-1.525.326-2.852.979-3.975a8.86 8.86 0 0 1 2.561-2.811 11.12 11.12 0 0 1 3.58-1.665 15.26 15.26 0 0 1 3.996-.541c1.555 0 3.047.174 4.475.521 1.43.347 2.699.909 3.811 1.686a8.55 8.55 0 0 1 2.643 2.977c.653 1.207.979 2.671.979 4.392h-6.328c-.055-.888-.242-1.624-.561-2.206a3.697 3.697 0 0 0-1.271-1.374 5.37 5.37 0 0 0-1.811-.707c-.68-.14-1.422-.208-2.227-.208a7.73 7.73 0 0 0-1.582.166 4.222 4.222 0 0 0-1.436.583 3.6 3.6 0 0 0-1.063 1.04c-.277.417-.416.944-.416 1.582 0 .583.109 1.056.334 1.416.221.36.658.693 1.311.999.65.305 1.555.61 2.706.915 1.151.307 2.657.694 4.517 1.166.555.111 1.324.313 2.311.604.984.291 1.963.757 2.936 1.394.971.639 1.811 1.492 2.518 2.561.707 1.069 1.063 2.436 1.063 4.102 0 1.359-.266 2.621-.791 3.787-.527 1.166-1.313 2.172-2.352 3.02-1.041.846-2.332 1.504-3.873 1.977-1.539.471-3.322.708-5.35.708-1.637 0-3.227-.202-4.766-.604-1.541-.402-2.9-1.033-4.08-1.893a9.364 9.364 0 0 1-2.811-3.289c-.694-1.332-1.025-2.916-.998-4.746h6.326c-.002.997.18 1.845.541 2.539zM518.625 303.219v12.321l11.613-12.321h8.16l-11.613 11.738 12.738 17.983h-8.201l-8.951-13.363-3.746 3.789v9.574h-6.537v-29.722h6.537z" style="fill:#7d923a" transform="translate(-283.677 -242.426)"/></svg>
