<?xml version="1.0" encoding="UTF-8"?>
<svg width="266.18" height="101.12" version="1.1" xml:space="preserve" xmlns="http://www.w3.org/2000/svg"><path d="m34.899 68.202c0.096-0.094 0.281-0.281 0.375-0.375-1.031-1.595-1.781-3.471-2.344-5.159l-32.93 0.469 32.271 8.067c0.847-1.031 1.691-2.064 2.628-3.002zm-14.072-60.604 18.857 28.988c1.688-1.5 3.471-2.908 5.348-3.847zm47.658 23.641-5.816-25.329-0.563 24.767c1.781 0.47 3.471 1.032 5.158 1.783zm-64.074 63.137 26.549-2.158c-0.939-1.875-1.594-3.846-1.878-6.003zm81.805-69.798c1.688 0.188 3.377 0.563 4.973 1.22l1.594-25.798zm-15.291 7.974c-1.033 1.032-2.064 2.252-2.721 3.472-8.537-5.348-19.982-4.222-27.395 3.19-7.975 7.974-8.629 20.451-1.969 29.176-0.752 0.563-1.314 1.125-1.971 1.783-7.131 7.129-7.131 18.762 0 25.893 5.158 5.158 12.905 5.97 19.23 4.221 2.62-0.725 6.336-2.904 5.937-5.593 0 0-9.375-9.085-12.05-16.2-2.676-7.113 0.676-21.48 5.972-25.857 5.297-4.378 11.96-9.281 22.146-8.85 5.093 0.214 10.95 3.38 15.649 5.031 4.697 1.65 8.416-1.913 8.416-1.913 1.692-4.881 0.993-8.513-4.886-14.07-6.385-6.036-19.136-7.507-26.358-0.283z" fill="#fff" fill-opacity=".80203"/><path d="m236.07 42.334c-7.631 0-14.553 3.026-19.643 7.939-5.09-4.913-12.012-7.939-19.643-7.939-7.633 0-14.553 3.026-19.643 7.939-5.09-4.913-12.012-7.939-19.644-7.939-7.976 0-15.177 3.305-20.321 8.614-5.145-5.309-12.344-8.614-20.32-8.614-7.975 0-15.176 3.305-20.32 8.614-5.143-5.309-12.344-8.614-20.32-8.614-15.629 0-28.301 12.671-28.301 28.301 0 15.631 12.672 28.301 28.301 28.301 7.977 0 15.178-3.305 20.32-8.613 5.145 5.309 12.346 8.613 20.32 8.613 7.977 0 15.176-3.305 20.32-8.613 5.145 5.309 12.346 8.613 20.321 8.613 7.632 0 14.554-3.027 19.644-7.938 5.09 4.91 12.01 7.938 19.643 7.938 7.631 0 14.553-3.027 19.643-7.938 5.09 4.91 12.012 7.938 19.643 7.938 15.631 0 28.301-12.67 28.301-28.301 0-15.629-12.67-28.301-28.301-28.301z" fill="none" fill-opacity="0" stroke="#fff" stroke-miterlimit="10" stroke-width="3.6129"/><path d="m80.167 55.793c1.859 0 3.441 0.271 4.746 0.811 1.305 0.542 2.365 1.256 3.184 2.145a8.241 8.241 0 0 1 1.791 3.038c0.375 1.14 0.561 2.318 0.561 3.539 0 1.193-0.186 2.366-0.561 3.518a8.21 8.21 0 0 1-1.791 3.059c-0.818 0.889-1.879 1.604-3.184 2.145s-2.887 0.813-4.746 0.813h-6.869v10.656h-6.537v-29.722h13.406zm-1.791 13.987c0.75 0 1.471-0.057 2.165-0.168a5.02 5.02 0 0 0 1.832-0.644c0.526-0.319 0.95-0.771 1.269-1.354 0.32-0.583 0.479-1.346 0.479-2.29 0-0.942-0.158-1.706-0.479-2.29a3.52 3.52 0 0 0-1.269-1.353 5.077 5.077 0 0 0-1.832-0.645 13.688 13.688 0 0 0-2.165-0.167h-5.078v8.909h5.078zm43.004-13.987c1.332 0 2.531 0.215 3.6 0.644 1.07 0.432 1.984 1.021 2.748 1.77a7.675 7.675 0 0 1 1.748 2.603 8.35 8.35 0 0 1 0.604 3.185c0 1.749-0.368 3.262-1.103 4.538-0.736 1.276-1.938 2.247-3.602 2.913v0.084c0.805 0.221 1.471 0.561 1.998 1.02s0.957 0.998 1.291 1.623a7.63 7.63 0 0 1 0.729 2.061c0.152 0.75 0.256 1.5 0.312 2.248 0.028 0.473 0.056 1.027 0.083 1.666s0.076 1.291 0.146 1.955c0.068 0.666 0.18 1.299 0.334 1.896 0.15 0.596 0.381 1.102 0.686 1.518h-6.535c-0.361-0.942-0.582-2.066-0.666-3.371a50.933 50.933 0 0 0-0.375-3.746c-0.223-1.555-0.693-2.691-1.416-3.414-0.721-0.721-1.9-1.084-3.537-1.084h-6.537v11.615h-6.535v-29.722h16.027zm-2.332 13.445c1.5 0 2.623-0.333 3.371-0.998 0.75-0.667 1.125-1.749 1.125-3.248 0-1.442-0.375-2.49-1.125-3.143-0.748-0.652-1.871-0.979-3.371-0.979h-7.16v8.367h7.16zm42.004-13.445 11.115 29.722h-6.785l-2.248-6.619h-11.115l-2.332 6.619h-6.578l11.24-29.722zm0.375 18.233-3.746-10.907h-0.084l-3.871 10.907zm29.14 4.163a4.692 4.692 0 0 0 1.436 1.685c0.596 0.432 1.297 0.75 2.104 0.959a9.971 9.971 0 0 0 2.496 0.311c0.584 0 1.207-0.047 1.873-0.146a6.49 6.49 0 0 0 1.873-0.562 4.09 4.09 0 0 0 1.459-1.145c0.387-0.486 0.582-1.103 0.582-1.853 0-0.806-0.258-1.458-0.77-1.956-0.514-0.5-1.188-0.916-2.02-1.25a19.7 19.7 0 0 0-2.832-0.873 76.389 76.389 0 0 1-3.205-0.834 28.195 28.195 0 0 1-3.246-1.02c-1.055-0.402-2-0.922-2.832-1.561a7.352 7.352 0 0 1-2.018-2.394c-0.514-0.958-0.771-2.116-0.771-3.477 0-1.525 0.326-2.852 0.979-3.975a8.86 8.86 0 0 1 2.561-2.811 11.12 11.12 0 0 1 3.58-1.665 15.26 15.26 0 0 1 3.996-0.541c1.555 0 3.047 0.174 4.475 0.521 1.43 0.347 2.699 0.909 3.811 1.686a8.55 8.55 0 0 1 2.643 2.977c0.653 1.207 0.979 2.671 0.979 4.392h-6.328c-0.055-0.888-0.242-1.624-0.561-2.206a3.697 3.697 0 0 0-1.271-1.374 5.37 5.37 0 0 0-1.811-0.707c-0.68-0.14-1.422-0.208-2.227-0.208a7.73 7.73 0 0 0-1.582 0.166 4.222 4.222 0 0 0-1.436 0.583 3.6 3.6 0 0 0-1.063 1.04c-0.277 0.417-0.416 0.944-0.416 1.582 0 0.583 0.109 1.056 0.334 1.416 0.221 0.36 0.658 0.693 1.311 0.999 0.65 0.305 1.555 0.61 2.706 0.915 1.151 0.307 2.657 0.694 4.517 1.166 0.555 0.111 1.324 0.313 2.311 0.604 0.984 0.291 1.963 0.757 2.936 1.394 0.971 0.639 1.811 1.492 2.518 2.561s1.063 2.436 1.063 4.102c0 1.359-0.266 2.621-0.791 3.787-0.527 1.166-1.313 2.172-2.352 3.02-1.041 0.846-2.332 1.504-3.873 1.977-1.539 0.471-3.322 0.708-5.35 0.708-1.637 0-3.227-0.202-4.766-0.604-1.541-0.402-2.9-1.033-4.08-1.893a9.364 9.364 0 0 1-2.811-3.289c-0.694-1.332-1.025-2.916-0.998-4.746h6.326c-2e-3 0.997 0.18 1.845 0.541 2.539zm39.381-22.396v12.321l11.613-12.321h8.16l-11.613 11.738 12.738 17.983h-8.201l-8.951-13.363-3.746 3.789v9.574h-6.537v-29.722h6.537z" fill="#fff"/></svg>
