<svg width="77" height="61" viewBox="0 0 77 61" fill="none" xmlns="http://www.w3.org/2000/svg">
<path d="M39.8488 6.75095L31.4667 1.73799C29.959 0.836306 27.5146 0.836306 26.0069 1.73799L17.6249 6.75095C16.1172 7.65263 16.1172 9.11455 17.6249 10.0162L26.0069 15.0292C27.5146 15.9309 29.959 15.9309 31.4667 15.0292L39.8488 10.0162C41.3565 9.11455 41.3565 7.65263 39.8488 6.75095Z" fill="white"/>
<path d="M37.6747 6.68815L30.8089 2.58204C29.574 1.84348 27.5718 1.84348 26.3368 2.58205L19.4711 6.68815C18.2361 7.42672 18.2361 8.62417 19.4711 9.36274L26.3368 13.4689C27.5718 14.2074 29.574 14.2074 30.8089 13.4688L37.6747 9.36274C38.9096 8.62418 38.9096 7.42672 37.6747 6.68815Z" fill="white"/>
<path d="M40.8627 6.77697C40.7047 6.23425 40.2863 5.74523 39.6642 5.39479L31.1757 0.613151C30.474 0.217739 29.5495 0 28.5728 0C27.5962 0 26.672 0.217739 25.9699 0.613151L17.4927 5.38846C16.5517 5.7507 15.8792 6.6641 15.8792 7.72664V16.8986C15.8792 18.45 17.4624 19.394 17.6894 19.5381L26.324 25.0274C27.5607 25.8134 29.585 25.8134 30.8215 25.0274L39.4561 19.5381C39.8158 19.3096 40.0669 19.0433 40.2125 18.763C40.7264 18.3034 41.0516 17.637 41.0516 16.8982V7.72622C41.0519 7.39111 40.9844 7.07005 40.8627 6.77697V6.77697ZM26.532 1.60611C27.0574 1.31007 27.8018 1.14013 28.5728 1.14013C29.344 1.14013 30.0882 1.31007 30.6135 1.60611L39.1019 6.38789C39.5319 6.62994 39.7827 6.94411 39.7911 7.24998C39.7994 7.55627 39.5651 7.88337 39.1491 8.14805L30.5143 13.6372C30.014 13.9555 29.3066 14.1379 28.5728 14.1379C27.8392 14.1379 27.1315 13.9555 26.6313 13.6374L17.9966 8.14848C17.5804 7.88365 17.3465 7.55641 17.3545 7.25012C17.3628 6.94425 20.2126 5.65252 20.6424 5.41047L26.532 1.60611Z" fill="white"/>
<path d="M38.9614 7.70205C38.8277 7.24257 38.4734 6.82855 37.9468 6.53186L30.7602 2.48359C30.1661 2.14882 29.3834 1.96448 28.5565 1.96448C27.7297 1.96448 26.9472 2.14882 26.3528 2.48359L19.1758 6.5265C18.3791 6.83319 17.8097 7.60649 17.8097 8.50607V16.2713C17.8097 17.5848 19.1502 18.384 19.3423 18.506L26.6526 23.1534C27.6996 23.8189 29.4134 23.8189 30.4603 23.1534L37.7706 18.506C38.0751 18.3125 38.2877 18.0871 38.4111 17.8498C38.8461 17.4607 39.1214 16.8964 39.1214 16.2709V8.50572C39.1216 8.222 39.0645 7.95019 38.9614 7.70205V7.70205ZM26.8287 3.32426C27.2735 3.07362 27.9037 2.92974 28.5565 2.92974C29.2095 2.92974 29.8395 3.07362 30.2842 3.32426L37.4707 7.37265C37.8347 7.57757 38.0471 7.84355 38.0543 8.10251C38.0613 8.36183 37.8629 8.63876 37.5107 8.86285L30.2003 13.5101C29.7767 13.7796 29.1777 13.934 28.5565 13.934C27.9355 13.934 27.3363 13.7796 26.9128 13.5103L19.6024 8.86321C19.25 8.639 19.052 8.36195 19.0588 8.10264C19.0658 7.84368 19.2783 7.57769 19.6422 7.37276L26.8287 3.32426Z" fill="black"/>
<path d="M32.9279 7.72184C33.4442 8.0127 33.4574 8.51098 32.9574 8.82885L29.4657 11.0483C28.9657 11.3662 28.147 11.3662 27.6472 11.0483L24.1555 8.82885C23.6554 8.51098 23.6687 8.01282 24.1849 7.72184L27.6174 5.78833C28.1336 5.49748 28.9785 5.49748 29.495 5.78833L32.9279 7.72184Z" fill="#5F7DE4"/>
<path d="M58.0244 13.633L49.7967 8.71233C48.3168 7.82724 45.9173 7.82724 44.4374 8.71233L36.2097 13.633C34.7298 14.5181 34.7298 15.9531 36.2097 16.8382L44.4374 21.7588C45.9173 22.6439 48.3168 22.6439 49.7967 21.7588L58.0244 16.8382C59.5044 15.9531 59.5044 14.5181 58.0244 13.633Z" fill="white"/>
<path d="M59.4069 13.9871C59.2489 13.4443 58.8304 12.9553 58.2084 12.6049L49.7199 7.82323C49.0182 7.42782 48.0936 7.21008 47.1169 7.21008C46.1404 7.21008 45.2162 7.42782 44.5141 7.82323L36.0369 12.5985C35.0958 12.9608 34.4233 13.8742 34.4233 14.9367V24.1087C34.4233 25.6601 36.0066 26.6041 36.2336 26.7482L44.8682 32.2375C46.1048 33.0235 48.1292 33.0235 49.3657 32.2375L58.0003 26.7482C58.36 26.5197 58.6111 26.2534 58.7567 25.9731C59.2706 25.5135 59.5958 24.8471 59.5958 24.1082V14.9363C59.5961 14.6012 59.5286 14.2801 59.4069 13.9871V13.9871ZM45.0761 8.81619C45.6016 8.52015 46.3459 8.35022 47.1169 8.35022C47.8882 8.35022 48.6324 8.52015 49.1577 8.81619L57.646 13.598C58.0761 13.84 58.3269 14.1542 58.3353 14.4601C58.3436 14.7664 58.1093 15.0935 57.6932 15.3581L49.0585 20.8472C48.5582 21.1656 47.8507 21.3479 47.1169 21.3479C46.3834 21.3479 45.6757 21.1656 45.1755 20.8475L36.5408 15.3586C36.1246 15.0937 35.8907 14.7665 35.8987 14.4602C35.907 14.1543 36.1579 13.8402 36.5878 13.5981L45.0761 8.81619Z" fill="white"/>
<path d="M57.5055 14.9121C57.3718 14.4526 57.0175 14.0386 56.4908 13.7419L49.3043 9.69367C48.7102 9.3589 47.9274 9.17456 47.1005 9.17456C46.2737 9.17456 45.4913 9.3589 44.8969 9.69367L37.7199 13.7366C36.9231 14.0433 36.3538 14.8166 36.3538 15.7161V23.4814C36.3538 24.7949 37.6942 25.5941 37.8864 25.7161L45.1967 30.3634C46.2437 31.0289 47.9575 31.0289 49.0044 30.3634L56.3146 25.7161C56.6192 25.5226 56.8317 25.2972 56.9551 25.0599C57.3901 24.6707 57.6655 24.1065 57.6655 23.481V15.7158C57.6657 15.4321 57.6086 15.1603 57.5055 14.9121ZM45.3727 10.5343C45.8176 10.2837 46.4478 10.1398 47.1005 10.1398C47.7535 10.1398 48.3836 10.2837 48.8283 10.5343L56.0147 14.5827C56.3788 14.7877 56.5912 15.0536 56.5983 15.3126C56.6053 15.5719 56.407 15.8488 56.0547 16.0729L48.7443 20.7202C48.3207 20.9897 47.7218 21.1441 47.1005 21.1441C46.4795 21.1441 45.8803 20.9897 45.4568 20.7204L38.1464 16.0733C37.7941 15.8491 37.596 15.572 37.6028 15.3127C37.6099 15.0538 37.8223 14.7878 38.1863 14.5828L45.3727 10.5343Z" fill="black"/>
<path d="M43.4069 24.2152L35.0248 19.2022C33.5171 18.3005 31.0727 18.3005 29.565 19.2022L21.183 24.2152C19.6753 25.1169 19.6753 26.5788 21.183 27.4805L29.565 32.4934C31.0727 33.3951 33.5171 33.3951 35.0248 32.4934L43.4069 27.4805C44.9146 26.5788 44.9146 25.1169 43.4069 24.2152Z" fill="white"/>
<path d="M51.472 14.9319C51.9883 15.2228 52.0014 15.7211 51.5014 16.0389L48.0097 18.2584C47.5098 18.5763 46.6911 18.5763 46.1913 18.2584L42.6996 16.0389C42.1995 15.7211 42.2128 15.2229 42.729 14.9319L46.1614 12.9984C46.6777 12.7076 47.5225 12.7076 48.0391 12.9984L51.472 14.9319Z" fill="#5F7DE4"/>
<path d="M22.8047 18.0399L15.8389 13.8739C14.5859 13.1245 12.5545 13.1245 11.3015 13.8739L4.3357 18.0399C3.08275 18.7892 3.08276 20.0041 4.3357 20.7534L11.3015 24.9194C12.5545 25.6687 14.5859 25.6687 15.8388 24.9194L22.8047 20.7534C24.0576 20.0041 24.0576 18.7892 22.8047 18.0399Z" fill="white"/>
<path d="M24.4943 17.3909L16.2666 12.4703C14.7866 11.5852 12.3872 11.5852 10.9073 12.4703L2.67954 17.3909C1.19961 18.276 1.19961 19.711 2.67954 20.5961L10.9073 25.5167C12.3872 26.4018 14.7866 26.4018 16.2666 25.5167L24.4943 20.5961C25.9742 19.711 25.9742 18.276 24.4943 17.3909Z" fill="white"/>
<path d="M25.8767 17.7451C25.7187 17.2024 25.3003 16.7134 24.6782 16.3629L16.1897 11.5813C15.4881 11.1859 14.5635 10.9681 13.5868 10.9681C12.6102 10.9681 11.6861 11.1859 10.984 11.5813L2.50676 16.3566C1.56569 16.7188 0.893188 17.6322 0.893188 18.6948V27.8667C0.893188 29.4181 2.47647 30.3622 2.70345 30.5063L11.338 35.9955C12.5747 36.7816 14.599 36.7816 15.8355 35.9955L24.4701 30.5063C24.8298 30.2777 25.0809 30.0115 25.2266 29.7312C25.7404 29.2715 26.0656 28.6051 26.0656 27.8663V18.6944C26.0659 18.3593 25.9984 18.0382 25.8767 17.7451V17.7451ZM11.546 12.5742C12.0714 12.2782 12.8158 12.1083 13.5868 12.1083C14.3581 12.1083 15.1023 12.2782 15.6276 12.5742L24.1159 17.356C24.5459 17.5981 24.7967 17.9122 24.8052 18.2181C24.8135 18.5244 24.5791 18.8515 24.1631 19.1162L15.5284 24.6053C15.028 24.9237 14.3206 25.106 13.5868 25.106C12.8533 25.106 12.1455 24.9237 11.6453 24.6056L3.01062 19.1166C2.59441 18.8518 2.36051 18.5246 2.36854 18.2183C2.37685 17.9124 2.6278 17.5982 3.05769 17.3562L11.546 12.5742Z" fill="white"/>
<path d="M19.6067 25.3746C19.6067 24.1964 20.3367 23.1169 21.4295 22.6681L23.9229 21.2635C23.9229 21.2635 24.1351 21.1965 24.1351 20.9065C24.1351 20.5484 24.1351 19.4741 24.1351 19.4741C24.1351 19.1898 24.0779 18.9182 23.9751 18.67C23.8412 18.2105 23.4869 17.7964 22.9603 17.4998L15.7736 13.4515C15.1793 13.1167 14.3967 12.9324 13.57 12.9324C12.7432 12.9324 11.9607 13.1168 11.3664 13.4515L4.18983 17.4946C3.39297 17.8013 2.82361 18.5744 2.82361 19.4742V27.2395C2.82361 28.523 4.16406 29.352 4.35599 29.4743L11.6664 34.1214C12.7134 34.7871 14.4269 34.7871 15.474 34.1215L19.4511 31.5932C19.4511 31.5932 19.6066 31.5081 19.6066 31.2303C19.6067 29.7665 19.6067 25.3746 19.6067 25.3746V25.3746ZM13.5701 24.9017C12.9489 24.9017 12.3497 24.7472 11.9263 24.478L4.61581 19.8309C4.26343 19.6068 4.06529 19.3297 4.07232 19.0704C4.07927 18.8113 4.29181 18.5452 4.65576 18.3404L11.8423 14.292C12.2873 14.0414 12.9171 13.8976 13.5702 13.8976C14.2233 13.8976 14.8531 14.0414 15.298 14.292L22.4847 18.3404C22.8487 18.5452 23.0612 18.8113 23.0682 19.0704C23.0754 19.3297 22.8769 19.6065 22.5246 19.8307L15.2142 24.4779C14.7906 24.7471 14.1914 24.9017 13.5701 24.9017V24.9017Z" fill="black"/>
<path d="M41.2326 24.1524L34.3669 20.0463C33.132 19.3077 31.1297 19.3077 29.8948 20.0463L23.0291 24.1524C21.7941 24.891 21.7941 26.0884 23.0291 26.827L29.8948 30.9331C31.1297 31.6716 33.132 31.6717 34.3669 30.9331L41.2327 26.827C42.4676 26.0884 42.4676 24.8909 41.2326 24.1524Z" fill="#FFFF00"/>
<path d="M44.4206 24.2412C44.2627 23.6985 43.8442 23.2095 43.2222 22.859L34.7337 18.0774C34.032 17.682 33.1074 17.4642 32.1307 17.4642C31.1542 17.4642 30.23 17.682 29.5279 18.0774L21.0507 22.8527C20.1096 23.2149 19.4371 24.1283 19.4371 25.1909V34.3628C19.4371 35.9142 21.0204 36.8583 21.2474 37.0024L29.882 42.4916C31.1187 43.2777 33.143 43.2777 34.3795 42.4916L43.0141 37.0024C43.3738 36.7738 43.6249 36.5076 43.7705 36.2273C44.2844 35.7676 44.6096 35.1012 44.6096 34.3624V25.1905C44.6099 24.8553 44.5424 24.5343 44.4206 24.2412V24.2412ZM30.09 19.0703C30.6154 18.7743 31.3597 18.6044 32.1307 18.6044C32.902 18.6044 33.6462 18.7743 34.1715 19.0703L42.6598 23.8521C43.0899 24.0942 43.3407 24.4083 43.3491 24.7142C43.3574 25.0205 43.1231 25.3476 42.707 25.6123L34.0723 31.1014C33.572 31.4198 32.8645 31.6021 32.1307 31.6021C31.3972 31.6021 30.6895 31.4198 30.1893 31.1017L21.5546 25.6127C21.1384 25.3479 20.9045 25.0207 20.9125 24.7144C20.9208 24.4085 21.1717 24.0943 21.6016 23.8523L30.09 19.0703Z" fill="white"/>
<path d="M42.5193 25.1663C42.3856 24.7068 42.0313 24.2928 41.5046 23.9961L34.3181 19.9478C33.724 19.6131 32.9412 19.4287 32.1143 19.4287C31.2875 19.4287 30.5051 19.6131 29.9107 19.9478L22.7336 23.9907C21.9369 24.2974 21.3676 25.0707 21.3676 25.9703V33.7355C21.3676 35.049 22.708 35.8483 22.9002 35.9702L30.2105 40.6176C31.2575 41.2831 32.9713 41.2831 34.0182 40.6176L41.3284 35.9702C41.633 35.7767 41.8456 35.5513 41.9689 35.314C42.4039 34.9249 42.6793 34.3607 42.6793 33.7352V25.9699C42.6795 25.6862 42.6224 25.4144 42.5193 25.1663V25.1663ZM30.3865 20.7885C30.8314 20.5379 31.4616 20.394 32.1143 20.394C32.7673 20.394 33.3974 20.5379 33.8421 20.7885L41.0285 24.8369C41.3926 25.0418 41.605 25.3078 41.6121 25.5667C41.6191 25.8261 41.4208 26.103 41.0685 26.3271L33.7581 30.9743C33.3345 31.2439 32.7356 31.3982 32.1143 31.3982C31.4933 31.3982 30.8941 31.2439 30.4706 30.9746L23.1602 26.3274C22.8079 26.1032 22.6098 25.8262 22.6166 25.5669C22.6237 25.3079 22.8361 25.0419 23.2001 24.837L30.3865 20.7885Z" fill="black"/>
<path d="M36.4858 25.1861C37.0021 25.4769 37.0152 25.9752 36.5152 26.2931L33.0235 28.5126C32.5236 28.8304 31.7049 28.8304 31.2051 28.5126L27.7134 26.2931C27.2133 25.9752 27.2266 25.4771 27.7428 25.1861L31.1752 23.2526C31.6915 22.9617 32.5363 22.9617 33.0528 23.2526L36.4858 25.1861Z" fill="black"/>
<path d="M12.431 18.8124L9.70129 17.1799C9.21029 16.8862 8.41422 16.8862 7.92322 17.1799L5.19349 18.8124C4.70249 19.1061 4.70249 19.5822 5.19349 19.8758L7.92323 21.5084C8.41423 21.802 9.21029 21.802 9.70129 21.5084L12.431 19.8758C12.922 19.5822 12.922 19.1061 12.431 18.8124Z" fill="white" stroke="black" stroke-width="0.0462151"/>
<path d="M17.1446 15.8614L14.4149 14.2288C13.9239 13.9352 13.1278 13.9352 12.6368 14.2288L9.90711 15.8614C9.41611 16.155 9.41611 16.6311 9.90711 16.9248L12.6369 18.5573C13.1279 18.851 13.9239 18.8509 14.4149 18.5573L17.1446 16.9248C17.6356 16.6311 17.6356 16.155 17.1446 15.8614Z" fill="#CD3C37"/>
<path d="M17.1446 21.7134L14.4149 20.0809C13.9239 19.7872 13.1278 19.7872 12.6368 20.0809L9.90711 21.7134C9.41611 22.0071 9.41611 22.4832 9.90711 22.7768L12.6369 24.4094C13.1279 24.703 13.9239 24.703 14.4149 24.4094L17.1446 22.7768C17.6356 22.4832 17.6356 22.0071 17.1446 21.7134Z" fill="#CD3C37"/>
<path d="M21.8584 18.8123L19.1287 17.1798C18.6377 16.8861 17.8416 16.8861 17.3506 17.1798L14.6209 18.8123C14.1299 19.1059 14.1299 19.582 14.6209 19.8757L17.3506 21.5082C17.8416 21.8019 18.6377 21.8019 19.1287 21.5082L21.8584 19.8757C22.3494 19.582 22.3494 19.106 21.8584 18.8123Z" fill="white" stroke="black" stroke-width="0.0462151"/>
<path d="M75.2389 16.9691C75.1233 16.993 72.4269 18.9753 69.2331 21.367L63.4222 25.7126C55.7656 31.3951 63.4222 25.7126 55.7656 31.3951C63.4222 25.7126 55.7656 31.3951 28.1631 52.301C20.8654 57.7829 21.1518 57.5097 21.5491 58.6603C21.7676 59.2603 22.3372 60.0249 22.8586 60.3951C23.3383 60.7252 24.1447 60.959 24.3917 60.8274C24.5108 60.7849 33.362 53.4938 44.0656 44.6376C54.7799 35.7891 63.9735 28.1904 64.4997 27.7592C70.7073 22.6258 68.625 24.321 70.7073 22.6258C73.3653 20.4572 76.1617 18.0799 76.1831 17.968C76.2595 17.5669 75.6108 16.8943 75.2389 16.9691Z" fill="white"/>
<path d="M63.3844 25.9304L38.6469 39.1128C12.5892 52.9971 13.6242 52.4041 13.6737 53.3417C13.6953 53.7962 14.0875 54.7428 14.4996 55.3161C14.9001 55.8918 15.3257 56.193 15.8561 56.2729C16.0934 56.3137 20.6438 53.6874 31.3841 47.298C87.5779 13.985 6.40594 62.1222 69.4228 24.7226C72.1929 23.0827 73.6445 22.1343 73.6731 21.9688C73.7016 21.8033 73.6425 21.5661 73.5046 21.3352C73.3075 20.9968 73.2686 20.9649 73.0295 20.9345C72.8869 20.924 72.1923 21.2172 71.4816 21.6035C63.3844 25.9304 71.4816 21.6035 63.3844 25.9304V25.9304Z" fill="white"/>
<path d="M74.6695 17.8909C74.5718 17.9307 71.9864 19.8844 68.9148 22.2299L63.3276 26.4932L39.3593 39.5653C14.1121 53.3339 15.1224 52.76 14.9971 53.3606C14.9343 53.6521 15.1066 54.1961 15.3634 54.4938C15.6098 54.7951 15.9272 54.9135 16.3759 54.869C16.5758 54.8523 21.0208 52.3168 31.5469 46.2083C54.919 32.6574 55.8595 32.1195 55.9748 32.0795C56.0796 32.043 42.8422 42.2187 29.3782 52.52C22.3561 57.8917 22.6441 57.6392 22.7173 58.3877C22.7647 58.7757 23.0584 59.2131 23.3976 59.3766C23.7119 59.5195 24.3088 59.529 24.535 59.3859C24.6396 59.332 33.2935 52.3555 43.7668 43.8908C54.2472 35.4296 63.2412 28.1649 63.7552 27.7518C64.5366 27.1284 65.3965 26.5951 68.8169 24.6092C71.5304 23.0389 72.9683 22.1581 73.0229 22.0453C73.0776 21.9325 73.0686 21.7891 72.9897 21.6641C72.8785 21.4799 72.8502 21.4663 72.6469 21.4901C72.5243 21.5092 71.8651 21.8262 71.1752 22.2067C69.5861 23.0755 69.4816 23.1294 69.8288 22.8446C72.423 20.7646 75.1728 18.5075 75.2138 18.4229C75.3607 18.1197 74.9838 17.7641 74.6696 17.8909H74.6695Z" fill="black"/>
</svg>
