<svg width="114" height="52" viewBox="0 0 114 52" fill="none" xmlns="http://www.w3.org/2000/svg">
<path d="M53.3636 32.317V34.6939H47.1532V37.6639H52.5354V39.8594H47.1532V45.17H44.327V32.317H53.3636Z" fill="#E39F3C"/>
<path d="M61.0824 38.7431C61.0824 45.5021 55.6039 50.9807 48.8453 50.9807C42.0867 50.9807 36.6082 45.5021 36.6082 38.7431C36.6082 31.9845 42.0867 26.5064 48.8453 26.5064C55.6039 26.5064 61.0824 31.9845 61.0824 38.7431Z" stroke="#E39F3C" stroke-width="1.56222" stroke-miterlimit="10"/>
<path d="M98.4264 42.0103C98.5823 42.3109 98.7892 42.5536 99.0476 42.7395C99.3052 42.9254 99.6084 43.0638 99.9564 43.1538C100.304 43.2438 100.664 43.2886 101.037 43.2886C101.288 43.2886 101.558 43.2676 101.846 43.2255C102.134 43.1834 102.405 43.1023 102.657 42.9827C102.908 42.8622 103.118 42.6974 103.286 42.4869C103.455 42.2777 103.539 42.0103 103.539 41.6865C103.539 41.3381 103.427 41.0563 103.206 40.8405C102.983 40.6241 102.693 40.4441 102.333 40.3003C101.972 40.1561 101.564 40.0302 101.108 39.9223C100.652 39.8139 100.19 39.6943 99.7226 39.5622C99.2424 39.4431 98.7744 39.2953 98.3185 39.1215C97.8621 38.9477 97.4545 38.7224 97.0944 38.4465C96.7343 38.1702 96.4432 37.8249 96.2215 37.411C95.9993 36.9972 95.8882 36.496 95.8882 35.9079C95.8882 35.2482 96.0293 34.6753 96.311 34.1889C96.5932 33.7025 96.9618 33.2985 97.4182 32.9738C97.8742 32.65 98.3901 32.4095 98.9666 32.2541C99.5425 32.0982 100.119 32.0194 100.694 32.0194C101.366 32.0194 102.011 32.0951 102.629 32.2446C103.247 32.3951 103.797 32.6383 104.277 32.9738C104.756 33.3097 105.138 33.7392 105.42 34.2606C105.701 34.7828 105.843 35.4161 105.843 36.1601H103.106C103.083 35.7762 103.002 35.4582 102.864 35.2061C102.726 34.9544 102.542 34.7559 102.314 34.6113C102.087 34.468 101.825 34.3663 101.532 34.3063C101.237 34.2458 100.916 34.2162 100.569 34.2162C100.34 34.2162 100.112 34.2404 99.8843 34.2879C99.6563 34.3358 99.4494 34.4205 99.2635 34.5396C99.0772 34.6605 98.924 34.8101 98.8044 34.9902C98.6844 35.1707 98.6244 35.3978 98.6244 35.6741C98.6244 35.9263 98.6723 36.1305 98.7686 36.2859C98.8644 36.4422 99.0534 36.5864 99.3352 36.7181C99.6173 36.8503 100.007 36.9819 100.505 37.1141C101.003 37.2462 101.655 37.4141 102.458 37.6179C102.698 37.6663 103.032 37.7527 103.457 37.879C103.883 38.0054 104.306 38.206 104.727 38.4823C105.146 38.7582 105.51 39.1273 105.816 39.5891C106.122 40.0513 106.275 40.6421 106.275 41.3627C106.275 41.9508 106.16 42.4959 105.933 43.0006C105.705 43.5045 105.366 43.9394 104.916 44.3058C104.466 44.6712 103.908 44.9565 103.241 45.1603C102.576 45.3641 101.804 45.4667 100.928 45.4667C100.22 45.4667 99.5336 45.3793 98.8676 45.2056C98.2016 45.0318 97.613 44.759 97.1033 44.3864C96.5932 44.0151 96.1879 43.5403 95.8882 42.9648C95.5882 42.3884 95.4439 41.704 95.456 40.9126H98.1926C98.1926 41.3443 98.2701 41.7103 98.4264 42.0103Z" fill="#E39F3C"/>
<path d="M113.103 38.7431C113.103 45.5021 107.624 50.9807 100.865 50.9807C94.1068 50.9807 88.6278 45.5021 88.6278 38.7431C88.6278 31.9845 94.1068 26.5064 100.865 26.5064C107.624 26.5064 113.103 31.9845 113.103 38.7431Z" stroke="#E39F3C" stroke-width="1.56222" stroke-miterlimit="10"/>
<path d="M87.0935 38.7431C87.0935 45.5021 81.6149 50.9807 74.8563 50.9807C68.0978 50.9807 62.6188 45.5021 62.6188 38.7431C62.6188 31.9845 68.0978 26.5064 74.8563 26.5064C81.6149 26.5064 87.0935 31.9845 87.0935 38.7431Z" stroke="#E39F3C" stroke-width="1.56222" stroke-miterlimit="10"/>
<path d="M71.7519 32.317V37.6451L76.7745 32.317H80.3029L75.2808 37.3933L80.7893 45.17H77.2425L73.3719 39.3914L71.7519 41.0297V45.17H68.9253V32.317H71.7519Z" fill="#E39F3C"/>
<path d="M24.2859 34.5328C21.3769 40.633 14.0732 43.22 7.973 40.3114C1.8728 37.4029 -0.714634 30.0992 2.19438 23.9985C5.1034 17.8979 12.4066 15.3109 18.5073 18.2199C24.6075 21.1285 27.1949 28.4322 24.2859 34.5328Z" fill="#E39F3C"/>
<path d="M24.2859 34.5328C21.3769 40.633 14.0732 43.22 7.973 40.3114C1.8728 37.4029 -0.714634 30.0992 2.19438 23.9985C5.1034 17.8979 12.4066 15.3109 18.5073 18.2199C24.6075 21.1285 27.1949 28.4322 24.2859 34.5328Z" stroke="#E39F3C" stroke-width="1.56222" stroke-miterlimit="10"/>
<path d="M49.3986 6.58515H48.2919V26.5067H49.3986V6.58515Z" fill="#E39F3C"/>
<path d="M27.5806 0.476039L26.5818 -6.34978e-05L18.0074 17.9821L19.0062 18.4582L27.5806 0.476039Z" fill="#E39F3C"/>
<path d="M75.4099 6.58515H74.3027V26.5067H75.4099V6.58515Z" fill="#E39F3C"/>
<path d="M101.419 6.58515H100.312V26.5067H101.419V6.58515Z" fill="#E39F3C"/>
</svg>
