<svg width="115" height="52" viewBox="0 0 115 52" fill="none" xmlns="http://www.w3.org/2000/svg">
<path d="M54.1105 32.317V34.6939H47.9001V37.6639H53.2824V39.8594H47.9001V45.17H45.074V32.317H54.1105Z" fill="white"/>
<path d="M61.8295 38.7431C61.8295 45.5021 56.3509 50.9807 49.5924 50.9807C42.8338 50.9807 37.3552 45.5021 37.3552 38.7431C37.3552 31.9845 42.8338 26.5064 49.5924 26.5064C56.3509 26.5064 61.8295 31.9845 61.8295 38.7431Z" stroke="white" stroke-width="1.56222" stroke-miterlimit="10"/>
<path d="M99.1735 42.0103C99.3293 42.3109 99.5363 42.5536 99.7947 42.7395C100.052 42.9254 100.355 43.0638 100.703 43.1538C101.051 43.2438 101.412 43.2886 101.784 43.2886C102.035 43.2886 102.306 43.2676 102.594 43.2255C102.882 43.1834 103.152 43.1023 103.404 42.9827C103.655 42.8622 103.866 42.6974 104.033 42.4869C104.202 42.2777 104.286 42.0103 104.286 41.6865C104.286 41.3381 104.175 41.0563 103.953 40.8405C103.73 40.6241 103.44 40.4441 103.08 40.3003C102.719 40.1561 102.311 40.0302 101.855 39.9223C101.399 39.8139 100.937 39.6943 100.47 39.5622C99.9895 39.4431 99.5215 39.2953 99.0655 39.1215C98.6091 38.9477 98.2016 38.7224 97.8415 38.4465C97.4814 38.1702 97.1902 37.8249 96.9685 37.411C96.7464 36.9972 96.6353 36.496 96.6353 35.9079C96.6353 35.2482 96.7764 34.6753 97.0581 34.1889C97.3403 33.7025 97.7089 33.2985 98.1653 32.9738C98.6212 32.65 99.1372 32.4095 99.7136 32.2541C100.29 32.0982 100.866 32.0194 101.442 32.0194C102.113 32.0194 102.758 32.0951 103.376 32.2446C103.995 32.3951 104.544 32.6383 105.024 32.9738C105.503 33.3097 105.885 33.7392 106.167 34.2606C106.448 34.7828 106.59 35.4161 106.59 36.1601H103.853C103.83 35.7762 103.749 35.4582 103.611 35.2061C103.473 34.9544 103.29 34.7559 103.062 34.6113C102.834 34.468 102.572 34.3663 102.279 34.3063C101.984 34.2458 101.663 34.2162 101.316 34.2162C101.087 34.2162 100.859 34.2404 100.631 34.2879C100.403 34.3358 100.196 34.4205 100.011 34.5396C99.8242 34.6605 99.6711 34.8101 99.5515 34.9902C99.4315 35.1707 99.3714 35.3978 99.3714 35.6741C99.3714 35.9263 99.4194 36.1305 99.5157 36.2859C99.6115 36.4422 99.8005 36.5864 100.082 36.7181C100.364 36.8503 100.755 36.9819 101.253 37.1141C101.75 37.2462 102.402 37.4141 103.205 37.6179C103.445 37.6663 103.779 37.7527 104.205 37.879C104.631 38.0054 105.053 38.206 105.474 38.4823C105.894 38.7582 106.257 39.1273 106.563 39.5891C106.869 40.0513 107.022 40.6421 107.022 41.3627C107.022 41.9508 106.908 42.4959 106.68 43.0006C106.452 43.5045 106.113 43.9394 105.663 44.3058C105.213 44.6712 104.655 44.9565 103.988 45.1603C103.323 45.3641 102.551 45.4667 101.675 45.4667C100.967 45.4667 100.281 45.3793 99.6146 45.2056C98.9486 45.0318 98.3601 44.759 97.8504 44.3864C97.3403 44.0151 96.9349 43.5403 96.6353 42.9648C96.3352 42.3884 96.191 41.704 96.2031 40.9126H98.9397C98.9397 41.3443 99.0172 41.7103 99.1735 42.0103Z" fill="white"/>
<path d="M113.85 38.7431C113.85 45.5021 108.371 50.9807 101.613 50.9807C94.854 50.9807 89.375 45.5021 89.375 38.7431C89.375 31.9845 94.854 26.5064 101.613 26.5064C108.371 26.5064 113.85 31.9845 113.85 38.7431Z" stroke="white" stroke-width="1.56222" stroke-miterlimit="10"/>
<path d="M87.8407 38.7431C87.8407 45.5021 82.3621 50.9807 75.6035 50.9807C68.8449 50.9807 63.366 45.5021 63.366 38.7431C63.366 31.9845 68.8449 26.5064 75.6035 26.5064C82.3621 26.5064 87.8407 31.9845 87.8407 38.7431Z" stroke="white" stroke-width="1.56222" stroke-miterlimit="10"/>
<path d="M72.499 32.317V37.6451L77.5216 32.317H81.05L76.0279 37.3933L81.5364 45.17H77.9896L74.119 39.3914L72.499 41.0297V45.17H69.6724V32.317H72.499Z" fill="white"/>
<path d="M25.033 34.5328C22.1239 40.633 14.8203 43.22 8.72007 40.3114C2.61987 37.4029 0.0324359 30.0992 2.94145 23.9985C5.85047 17.8979 13.1537 15.3109 19.2543 18.2199C25.3545 21.1285 27.942 28.4322 25.033 34.5328Z" fill="white"/>
<path d="M25.033 34.5328C22.1239 40.633 14.8203 43.22 8.72007 40.3114C2.61987 37.4029 0.0324359 30.0992 2.94145 23.9985C5.85047 17.8979 13.1537 15.3109 19.2543 18.2199C25.3545 21.1285 27.942 28.4322 25.033 34.5328Z" stroke="white" stroke-width="1.56222" stroke-miterlimit="10"/>
<path d="M50.1455 6.58515H49.0388V26.5067H50.1455V6.58515Z" fill="white"/>
<path d="M28.3277 0.476039L27.329 -6.34978e-05L18.7546 17.9821L19.7534 18.4582L28.3277 0.476039Z" fill="white"/>
<path d="M76.157 6.58515H75.0498V26.5067H76.157V6.58515Z" fill="white"/>
<path d="M102.166 6.58515H101.059V26.5067H102.166V6.58515Z" fill="white"/>
</svg>
